<svg width="512" height="512" viewBox="0 0 512 512" fill="none" xmlns="http://www.w3.org/2000/svg">
  <rect width="512" height="512" rx="112" fill="#02070D"/>
  <ellipse cx="256" cy="256" rx="210" ry="210" fill="url(#bgGlow)" opacity="0.75"/>
  <circle cx="256" cy="256" r="190" fill="#04111E" stroke="url(#outerStroke)" stroke-width="3"/>
  <circle cx="256" cy="256" r="154" stroke="#123B5A" stroke-width="2" opacity="0.9"/>
  <circle cx="256" cy="256" r="112" stroke="#0B4C85" stroke-width="1.5" opacity="0.65"/>
  <path d="M126 161C189 93 323 82 394 156" stroke="#7DEBFF" stroke-width="9" stroke-linecap="round" opacity="0.85"/>
  <path d="M386 356C321 424 189 431 118 358" stroke="#2A7BFF" stroke-width="9" stroke-linecap="round" opacity="0.72"/>
  <path d="M256 75C311 151 361 201 437 256C361 311 311 361 256 437C201 361 151 311 75 256C151 201 201 151 256 75Z" fill="url(#diamond)"/>
  <path d="M256 122C295 177 335 217 390 256C335 295 295 335 256 390C217 335 177 295 122 256C177 217 217 177 256 122Z" fill="#02070D" opacity="0.9"/>
  <path d="M256 157L287 228L356 256L287 284L256 355L225 284L156 256L225 228L256 157Z" fill="url(#coreStar)"/>
  <circle cx="256" cy="256" r="34" fill="#EAFBFF"/>
  <circle cx="256" cy="256" r="15" fill="#00D4FF"/>
  <circle cx="256" cy="256" r="6" fill="#02070D" opacity="0.65"/>
  <circle cx="388" cy="160" r="11" fill="#00FF88"/>
  <circle cx="388" cy="160" r="24" stroke="#00FF88" stroke-width="2" opacity="0.25"/>
  <circle cx="120" cy="358" r="9" fill="#00D4FF"/>
  <circle cx="120" cy="358" r="20" stroke="#00D4FF" stroke-width="2" opacity="0.25"/>
  <defs>
    <radialGradient id="bgGlow" cx="0" cy="0" r="1" gradientUnits="userSpaceOnUse" gradientTransform="translate(256 256) rotate(90) scale(220)"><stop stop-color="#00D4FF" stop-opacity="0.42"/><stop offset="0.42" stop-color="#0B4C85" stop-opacity="0.18"/><stop offset="1" stop-color="#000000" stop-opacity="0"/></radialGradient>
    <linearGradient id="outerStroke" x1="66" y1="66" x2="446" y2="446" gradientUnits="userSpaceOnUse"><stop stop-color="#7DEBFF"/><stop offset="0.5" stop-color="#00D4FF"/><stop offset="1" stop-color="#2A7BFF"/></linearGradient>
    <linearGradient id="diamond" x1="75" y1="75" x2="437" y2="437" gradientUnits="userSpaceOnUse"><stop stop-color="#EAFBFF"/><stop offset="0.24" stop-color="#7DEBFF"/><stop offset="0.58" stop-color="#00D4FF"/><stop offset="1" stop-color="#2A7BFF"/></linearGradient>
    <linearGradient id="coreStar" x1="156" y1="157" x2="356" y2="355" gradientUnits="userSpaceOnUse"><stop stop-color="#FFFFFF"/><stop offset="0.46" stop-color="#7DEBFF"/><stop offset="1" stop-color="#00D4FF"/></linearGradient>
  </defs>
</svg>
